<svg width="38" height="38" viewBox="0 0 38 38" fill="none" xmlns="http://www.w3.org/2000/svg">
<path d="M21.0993 19.0001L37.5652 2.53407C38.1449 1.95435 38.1449 1.01444 37.5652 0.434792C36.9855 -0.144856 36.0456 -0.144931 35.4659 0.434792L19 16.9008L2.53406 0.434792C1.95434 -0.144931 1.01444 -0.144931 0.434791 0.434792C-0.144856 1.01451 -0.14493 1.95442 0.434791 2.53407L16.9007 19L0.434791 35.466C-0.14493 36.0457 -0.14493 36.9857 0.434791 37.5653C0.724614 37.8551 1.10454 38 1.48446 38C1.86439 38 2.24424 37.8551 2.53414 37.5653L19 21.0994L35.4659 37.5653C35.7557 37.8551 36.1356 38 36.5155 38C36.8955 38 37.2753 37.8551 37.5652 37.5653C38.1449 36.9856 38.1449 36.0457 37.5652 35.466L21.0993 19.0001Z" fill="black"/>
</svg>
