<svg width="138" height="138" viewBox="0 0 138 138" fill="none" xmlns="http://www.w3.org/2000/svg">
<path d="M69 11.5C37.8293 11.5 11.5 37.8293 11.5 69C11.5 100.171 37.8293 126.5 69 126.5C100.171 126.5 126.5 100.171 126.5 69C126.5 37.8293 100.171 11.5 69 11.5ZM69 40.25C78.9303 40.25 86.25 47.564 86.25 57.5C86.25 67.436 78.9303 74.75 69 74.75C59.0755 74.75 51.75 67.436 51.75 57.5C51.75 47.564 59.0755 40.25 69 40.25ZM39.6405 96.439C44.7983 88.849 53.4002 83.789 63.25 83.789H74.75C84.6055 83.789 93.2018 88.849 98.3595 96.439C91.011 104.305 80.5863 109.25 69 109.25C57.4137 109.25 46.989 104.305 39.6405 96.439Z" fill="#A3A3A3"/>
</svg>
